<?xml version="1.0" encoding="UTF-8"?>
<svg width="1024mm" height="1024mm" version="1.1" viewBox="0 0 1024 1024" xmlns="http://www.w3.org/2000/svg">
    <path transform="matrix(.99986 .016492 -.00087691 1 0 0)" d="m298.11 16.863c-11.577 0-20.897 9.3199-20.897 20.897l-3e-5 888.05-28.026 0.67408c-10.423 0.25069-18.744 8.8414-18.656 19.262l0.31033 36.802c0.08794 10.421 8.5503 18.608 18.974 18.358l152.15-3.6597c10.423-0.25069 18.744-8.8419 18.656-19.263l-0.31034-36.802c-0.08793-10.421-8.5503-18.608-18.974-18.357l-28.224 0.6789-5.4e-4 -885.74c0-11.577-9.32-20.897-20.897-20.897l-54.109-5.8e-5z" style="fill-rule:evenodd;stroke-linecap:round;stroke-linejoin:round;stroke-width:1.1705"/>
    <path d="m337.61 52.473c208.8-40.92 174.32 142.11 288.72 210.72 60.03 36.548 129.52 30.421 175.92 92.211-72.758-36.151-85.445 0.70217-201.4-7.3285-91.515-9.7424-116.13-85.788-263.44-48.33z" style="fill-rule:evenodd;fill:#f00;stroke-linecap:round;stroke-linejoin:round"/>
</svg>
