<?xml version="1.0" encoding="UTF-8"?>
<svg width="1024mm" height="1024mm" version="1.1" viewBox="0 0 1024 1024" xmlns="http://www.w3.org/2000/svg">
    <path
        d="m490.49 16.725c-14.495 0-26.163 11.669-26.163 26.163v101.08a371.31 371.31 0 0 0-189.68 82.756c-0.0799-0.0819-0.14706-0.17115-0.22822-0.25231l-72.465-72.465c-10.249-10.249-26.751-10.249-37 0l-30.424 30.424c-10.249 10.249-10.249 26.752 0 37.001l72.465 72.465c0.93172 0.9317 1.9304 1.7487 2.9561 2.511a371.31 371.31 0 0 0-65.977 167.92h-101.08c-14.495 0-26.163 11.669-26.163 26.163v43.026c0 14.495 11.669 26.163 26.163 26.163h101.08a371.31 371.31 0 0 0 65.977 167.92c-1.0257 0.76232-2.0244 1.5793-2.9561 2.511l-72.465 72.465c-10.249 10.249-10.249 26.752 0 37.001l30.424 30.424c10.249 10.249 26.751 10.249 37 0l72.465-72.465c0.0811-0.0811 0.14836-0.17037 0.22822-0.2523a371.31 371.31 0 0 0 189.68 82.756v101.08c0 14.495 11.669 26.163 26.163 26.163h43.026c14.495 0 26.163-11.669 26.163-26.163v-101.08a371.31 371.31 0 0 0 189.68-82.756c0.0799 0.0819 0.14706 0.17115 0.22821 0.2523l72.465 72.465c10.249 10.249 26.752 10.249 37.001 0l30.424-30.424c10.249-10.249 10.249-26.752 0-37.001l-72.465-72.465c-0.93172-0.9317-1.9304-1.7487-2.9561-2.511a371.31 371.31 0 0 0 65.977-167.92h101.08c14.495 0 26.163-11.669 26.163-26.163v-43.026c0-14.495-11.669-26.163-26.163-26.163h-100.87a371.31 371.31 0 0 0-66.022-168.04c0.96651-0.73012 1.9091-1.5079 2.791-2.3898l72.465-72.465c10.249-10.249 10.249-26.752 0-37.001l-30.424-30.424c-10.249-10.249-26.752-10.249-37.001 0l-72.465 72.465c-0.0328 0.0328-0.0595 0.0692-0.0921 0.10207a371.31 371.31 0 0 0-189.82-82.816v-100.87c0-14.495-11.669-26.163-26.163-26.163zm-84.645 229.57c3.4833 0.093 5.9423 2.3132 6.0468 6.0383-0.0168 10.111-0.0329 20.223-0.0503 30.334-6e-3 3.3456-2.7034 6.3895-6.0036 6.9377-14.886 2.4728-29.433 7.0506-42.984 13.691-3.004 1.4721-7.7988 4.0144-10.688 5.7002-32.746 19.106-57.448 53.467-60.92 91.543-0.30372 3.3313-3.0818 6.0454-6.4274 6.0454h-31.576c-3.3456 0-6.0107-2.7131-5.8108-6.0525 0.81604-13.63 3.373-27.152 7.5387-40.155 1.0206-3.1859 2.8189-8.3055 4.0319-11.423 22.989-59.09 83.527-101.16 146.84-102.66z"
        style="fill-rule:evenodd;stroke-linecap:round;stroke-linejoin:round;stroke-width:2.7429;fill:var(--color-text,#000)" />
</svg>